<?xml version="1.0" encoding="UTF-8"?>
<!DOCTYPE svg PUBLIC "-//W3C//DTD SVG 1.1//EN" "http://www.w3.org/Graphics/SVG/1.1/DTD/svg11.dtd">
<!-- Creator: CorelDRAW -->
<svg xmlns="http://www.w3.org/2000/svg" xml:space="preserve" width="200mm" height="36mm" version="1.1" style="shape-rendering:geometricPrecision; text-rendering:geometricPrecision; image-rendering:optimizeQuality; fill-rule:evenodd; clip-rule:evenodd"
viewBox="0 0 20000 3600"
 xmlns:xlink="http://www.w3.org/1999/xlink"
 xmlns:xodm="http://www.corel.com/coreldraw/odm/2003">
 <defs>
  <style type="text/css">
   <![CDATA[
    .fil0 {fill:white;fill-rule:nonzero}
    .fil2 {fill:#00B5F1;fill-rule:nonzero}
    .fil3 {fill:#464398;fill-rule:nonzero}
    .fil1 {fill:#EE3563;fill-rule:nonzero}
   ]]>
  </style>
 </defs>
 <g id="Capa_x0020_1">
  <metadata id="CorelCorpID_0Corel-Layer"/>
  <path class="fil0" d="M4928.35 2479.39c292.37,0 523,-106.53 670.71,-298.42l-318.4 -284.52c-87.17,111.39 -191.89,175.55 -326.87,175.55 -208.85,0 -349.89,-145.27 -349.89,-374.09 0,-228.22 141.04,-373.51 349.89,-373.51 134.98,0 239.71,64.18 326.87,174.95l318.4 -283.91c-147.71,-192.5 -378.34,-299.04 -670.71,-299.04 -480.64,0 -832.95,322.65 -832.95,781.5 0,459.44 352.31,781.48 832.95,781.48l0 0.01zm1567.87 0c486.7,0 843.24,-328.7 843.24,-781.48 0,-452.8 -356.54,-781.5 -843.24,-781.5 -487.3,0 -843.84,328.7 -843.84,781.5 0,452.78 356.54,781.48 843.84,781.48zm0 -407.39c-185.83,0 -335.35,-141.04 -335.35,-374.09 0,-232.46 149.51,-373.51 335.35,-373.51 185.84,0 335.35,141.05 335.35,373.51 0,233.05 -149.51,374.09 -335.35,374.09zm2223.41 -408c136.19,-68.41 207.02,-184.02 207.02,-322.65 0,-226.39 -192.5,-390.44 -604.74,-390.44l-798.44 0 0 1494.58 841.43 0c412.23,0 631.97,-151.34 631.97,-412.24 0,-177.36 -102.31,-305.08 -277.24,-369.25zm-465.5 -360.8c113.19,0 164.04,38.15 164.04,110.78 0,72.65 -50.85,111.39 -164.04,111.39l-234.88 0 0 -222.17 234.88 0zm67.78 789.99l-302.66 0 0 -234.86 302.66 0c111.39,0 167.09,40.55 167.09,117.42 0,76.89 -55.7,117.44 -167.09,117.44l0 0zm1747.01 352.3l538.15 0 -313.56 -461.27c179.18,-92.01 281.48,-254.24 281.48,-469.74 0,-346.26 -264.53,-563.57 -681.01,-563.57l-719.75 0 0 1494.58 504.26 0 0 -375.92 136.19 0 254.25 375.92 -0.01 0zm-1.82 -931.01c0,108.96 -66.58,174.94 -205.2,174.94l-183.41 0 0 -349.89 183.41 0c138.62,0 205.2,65.99 205.2,174.95zm1817.23 931.01l520.59 0 -653.14 -1494.58 -495.78 0 -653.16 1494.58 512.72 0 99.88 -260.29 568.42 0 100.48 260.29 -0.01 0zm-529.68 -623.49l145.28 -375.92 145.29 375.92 -290.57 0z"/>
  <path class="fil0" d="M12885.53 2445.49l211.26 0 0 -1309.35 512.73 0 0 -185.23 -1236.71 0 0 185.23 512.72 0 0 1309.35zm924.4 0l213.69 0 0 -1494.58 -213.69 0 0 1494.58zm1299.13 16.96c232.44,0 433.42,-81.13 570.23,-234.87l-139.23 -134.39c-115.01,121.69 -256.06,179.19 -420.71,179.19 -337.17,0 -587.18,-243.35 -587.18,-574.47 0,-331.12 250.01,-574.47 587.18,-574.47 164.65,0 305.7,55.7 420.71,177.37l139.23 -134.38c-136.8,-153.76 -337.79,-233.06 -568.42,-233.06 -454.6,0 -792.39,322.65 -792.39,764.55 0,442.49 337.78,764.54 790.58,764.54l0 -0.01zm1902.63 -16.96l250.01 0 -679.18 -822.05 638.62 -672.53 -243.35 0 -811.75 834.75 0 -834.75 -213.69 0 0 1494.58 213.69 0 0 -386.82 273.61 -277.23 572.05 664.05 -0.01 0zm657.44 -185.84l0 -482.46 749.42 0 0 -181.59 -749.42 0 0 -459.44 841.43 0 0 -185.24 -1055.12 0 0 1494.59 1085.37 0 0 -185.85 -871.68 0 0 -0.01zm1482.54 185.84l211.26 0 0 -1309.35 512.73 0 0 -185.23 -1236.71 0 0 185.23 512.72 0 0 1309.35z"/>
  <path class="fil1" d="M955.35 2412.37l718.42 718.38c129.19,129.23 338.72,129.23 467.97,0l1468.34 -1468.4c129.18,-129.19 129.18,-338.67 0,-467.91l-168.21 -168.2c-6.92,8.93 -14.19,17.62 -22.39,25.77 -106.43,106.43 -278.95,106.43 -385.35,0 -106.43,-106.43 -106.43,-278.91 0,-385.34 8.2,-8.14 16.84,-15.47 25.72,-22.39l-168.2 -168.21c-129.19,-129.24 -338.69,-129.24 -467.91,0l-1468.37 1468.39c-129.2,129.23 -129.2,338.69 0,467.91l-0.02 0z"/>
  <path class="fil2" d="M2142.37 3130.75l718.38 -718.37c129.23,-129.24 129.23,-338.73 0,-467.96l-1468.38 -1468.35c-129.19,-129.23 -338.68,-129.23 -467.91,0l-168.16 168.16c8.88,6.92 17.57,14.25 25.72,22.44 106.39,106.43 106.39,278.92 0,385.35 -106.43,106.38 -278.95,106.38 -385.33,0 -8.16,-8.2 -15.49,-16.86 -22.41,-25.77l-168.19 168.2c-129.25,129.23 -129.25,338.72 0,467.91l1468.37 1468.37c129.24,129.25 338.69,129.25 467.92,0l-0.01 0.02z"/>
  <path class="fil3" d="M1908.04 3227.67c84.59,-0.09 169.12,-32.41 233.67,-96.92l725.52 -725.51c122.4,-129.7 120.46,-333.86 -6.46,-460.76l-952.73 -952.73 -952.71 952.73c-126.92,126.9 -128.83,331.06 -6.42,460.76l725.52 725.51c64.51,64.51 149.08,96.83 233.61,96.92z"/>
 </g>
 <g id="Capa_x0020_1_0">
  <metadata id="CorelCorpID_1Corel-Layer"/>
 </g>
</svg>
